# xmcd CD database file
#
# Track frame offsets:
#	150
#	26556
#	46877
#	59404
#	78256
#	98404
#	118804
#	141010
#
# Disc length: 2118 seconds
#
# Revision: 0
# Processed by: cddbd v1.5.2PL0 Copyright (c) Steve Scherf et al.
# Submitted via: CDex 1.70beta3
#
DISCID=5f084408
DTITLE=村瀬由衣 - Day by Day
DYEAR=2009
DGENRE=Jazz
TTITLE0=Misty
TTITLE1=Day By Day
TTITLE2=L-O-V-E
TTITLE3=Smoke Gets In Your Eyes
TTITLE4=Softly As In A Morning Sunrise
TTITLE5=When You Wish Upon A Star
TTITLE6=Night And Day
TTITLE7=Moon River
EXTD=YEAR: 2009
EXTT0=
EXTT1=
EXTT2=
EXTT3=
EXTT4=
EXTT5=
EXTT6=
EXTT7=
PLAYORDER=
